<svg width="96" height="96" xmlns="http://www.w3.org/2000/svg" xmlns:xlink="http://www.w3.org/1999/xlink" xml:space="preserve" overflow="hidden"><g transform="translate(-204 -575)"><path d="M252 591C259.732 591 266 597.268 266 605 266 612.732 259.732 619 252 619 244.268 619 238 612.732 238 605 238.008 597.271 244.271 591.008 252 591M252 589C243.163 589 236 596.163 236 605 236 613.837 243.163 621 252 621 260.837 621 268 613.837 268 605 268 596.163 260.837 589 252 589Z"/><path d="M284 657 282 657 282 641.5C281.952 639.376 280.952 637.386 279.275 636.081 274.889 632.716 269.868 630.273 264.513 628.9 260.459 627.652 256.242 627.012 252 627 247.759 627.074 243.548 627.713 239.476 628.9 234.177 630.452 229.178 632.886 224.688 636.1 223.028 637.406 222.042 639.388 222 641.5L222 657 220 657 220 641.5C220.05 638.769 221.326 636.205 223.476 634.519 228.167 631.151 233.395 628.601 238.937 626.977 243.184 625.74 247.577 625.075 252 625 256.432 625.011 260.838 625.678 265.075 626.979 270.685 628.424 275.943 630.991 280.533 634.525 282.678 636.211 283.952 638.772 284 641.5Z"/></g></svg>