<svg width="96" height="96" xmlns="http://www.w3.org/2000/svg" xmlns:xlink="http://www.w3.org/1999/xlink" xml:space="preserve" overflow="hidden"><g transform="translate(-160 -22)"><path d="M236 82 180 82 180 48 236 48 236 82ZM242 46C242 43.8 240.2 42 238 42L178 42C175.8 42 174 43.8 174 46L174 88 242 88 242 46Z" fill="#4EA72E"/><path d="M214 92 214 93C214 93.6 213.6 94 213 94L203 94C202.4 94 202 93.6 202 93L202 92 162 92 162 94C162 96.2 163.8 98 166 98L250 98C252.2 98 254 96.2 254 94L254 92 214 92Z" fill="#4EA72E"/></g></svg>