<svg width="96" height="96" xmlns="http://www.w3.org/2000/svg" xmlns:xlink="http://www.w3.org/1999/xlink" xml:space="preserve" overflow="hidden"><g transform="translate(-348 -589)"><path d="M364.5 671.8C363.8 672.5 362.9 672.7 362 672.3 361.1 671.9 360.6 671.1 360.6 670.2 360.6 669.3 361.2 668.4 362 668.1 362.9 667.7 363.8 667.9 364.5 668.6 365.4 669.4 365.4 670.9 364.5 671.8ZM435.1 605.9 427 614 420.6 612.3 419 606 427.1 597.9C422.3 596.1 416.9 597.2 413.1 600.6 409.3 604.1 407.8 609.3 409.1 614.3L358.1 665.3C356.3 667 355.6 669.6 356.2 672 356.8 674.4 358.7 676.3 361.1 676.9 363.5 677.5 366 676.8 367.8 675L418.8 624C423.8 625.3 429 623.8 432.5 620 435.9 616.2 437 610.7 435.1 605.9Z" fill="#E97132"/><path d="M434.7 665.3 408.9 639.5 398.5 649.9 423.5 674.9 424.4 675.8 424.5 675.7C427.4 677.8 431.4 677.4 433.9 674.9 436.4 672.3 436.7 668.3 434.7 665.3L434.7 665.3Z" fill="#E97132"/><path d="M370.6 608.8 370.7 608.7 368.1 603.9 359.5 597 356 600.5 362.9 609.1 367.7 611.7 367.8 611.6 386.9 630.7 389.7 627.9Z" fill="#E97132"/></g></svg>